<?xml version="1.0"?>
<svg xmlns="http://www.w3.org/2000/svg" xmlns:xlink="http://www.w3.org/1999/xlink" id="Gradient" viewBox="0 0 512 512" width="512" height="512"><defs><linearGradient id="linear-gradient" x1="256" y1="480" x2="256" y2="32" gradientUnits="userSpaceOnUse"><stop offset="0" stop-color="#12c2e9"/><stop offset="0.5" stop-color="#c471ed"/><stop offset="1" stop-color="#f64f59"/></linearGradient></defs><path d="M264,72a8,8,0,0,1,8-8h32a8,8,0,0,1,0,16H272A8,8,0,0,1,264,72ZM128,368v16a16.019,16.019,0,0,0,16,16H464a8,8,0,0,1,0,16H431.978a40,40,0,1,1-63.956,0H207.978a40,40,0,1,1-63.956,0H144a32.036,32.036,0,0,1-32-32V368a32.054,32.054,0,0,1,22.257-30.479L73.664,80H24a8,8,0,0,1,0-16H80a8,8,0,0,1,7.787,6.167l9.065,38.526a34.283,34.283,0,0,1,20.671-8.4,44.993,44.993,0,0,1,80.164-18.261A34.664,34.664,0,0,1,232,76.707V40a8,8,0,0,1,8-8H368a8,8,0,0,1,8,8V144h3.056l16.634-33.268A7.985,7.985,0,0,1,392,104V88a24.027,24.027,0,0,1,24-24h16a24.027,24.027,0,0,1,24,24v16a7.985,7.985,0,0,1-3.69,6.732L468.944,144H488a8,8,0,0,1,7.832,9.632l-40,192A8,8,0,0,1,448,352H144A16.019,16.019,0,0,0,128,368Zm73.062-80h52.6l-1.334-32H197.062Zm-19.236-24.895L161.081,288h23.857ZM225.444,208l5.333,32H251.66l-1.334-32Zm24.216-16-1.1-26.417L230.948,192Zm137.3,16-37.334,32h47.312l4-32Zm26.1,32H451.5l-34.814-29.012ZM268.34,256l1.081,25.935L304,256ZM288,288h34.326l1.108-26.575Zm50.34,0h18.3l2.667-32H339.674Zm34.354,0h18.244l4-32H375.361Zm-10.32-80h-20.7l-.767,18.4Zm-36.714,0H291.1l10.667,32h22.56Zm-59.32,0,1.334,32H284.9l-10.667-32Zm-63.278,96,4,32H216V304ZM232,336h23.66l-1.334-32H232Zm39.674,0h48.652l1.334-32H270.34Zm64.666,0h16.3l2.667-32H337.674Zm32.354,0h16.244l4-32H371.361Zm32.368,0h28.693l-24.816-31.019ZM451.5,288l6.667-32h-47.1l-4,32Zm12.219-58.652L468.162,208H438.1ZM402.938,192l4-32H392v32ZM376,160H343.674l-1.334,32H376Zm-48.34,0H264.34l1.334,32h60.652Zm-142.6,0,4,32h22.657l21.333-32Zm6,48,4,32h19.494l-5.333-32Zm-16.124,0h-54.72L128,241.072V240h50.938Zm-43.426,48,7.53,32h1.211l26.666-32Zm11.295,48,7.529,32h40.6l-4-32Zm305.355,0H424.645L443.3,327.322Zm30-144h-55.1l-4,32H471.5ZM408,96h32V88a8.009,8.009,0,0,0-8-8H416a8.009,8.009,0,0,0-8,8Zm-11.056,48h54.112l-16-32H412.944ZM360,48H344v96h16ZM248,48v96h80V48ZM105.16,144H232V95.256a18.518,18.518,0,0,0-28.723,4.592,8,8,0,0,1-14.544-1.093A28.836,28.836,0,0,0,161.6,80c-15.88,0-28.8,12.667-28.8,28.235l.012.41a8,8,0,0,1-9.57,7.956,18.809,18.809,0,0,0-3.7-.366,18.237,18.237,0,0,0-16.4,9.97,7.948,7.948,0,0,1-1.652,2.187Zm3.764,16,7.53,32h56.484l-4-32ZM176,416a24,24,0,1,0,24,24A24.028,24.028,0,0,0,176,416Zm224,0a24,24,0,1,0,24,24A24.028,24.028,0,0,0,400,416ZM176,448a8,8,0,1,0-8-8A8,8,0,0,0,176,448Zm224,0a8,8,0,1,0-8-8A8,8,0,0,0,400,448Z" style="fill:url(#linear-gradient)"/></svg>
